<svg width="434" height="422" viewBox="0 0 434 422" fill="none" xmlns="http://www.w3.org/2000/svg">
<path d="M184.28 153C201.586 174.926 228.399 189 258.5 189C276.232 189 292.821 184.115 307 175.619V280C307 291.046 298.046 300 287 300H59C47.9543 300 39 291.046 39 280V173C39 161.954 47.9543 153 59 153H184.28ZM66.5 210.5H67.5V212.5H69.5V214.5H173.5V212.5H175.5V210.5H178V203.5H66.5V210.5ZM71 185.5H69V187.5H66.5V194.5H178V187.5H177V185.5H175V183.5H71V185.5Z" fill="white"/>
<path d="M174.075 137C175.46 139.746 176.975 142.416 178.612 145H45C38.3726 145 33 150.373 33 157V288C33 294.627 38.3726 300 45 300H310C316.627 300 322 294.627 322 288V164.485C324.823 161.922 327.491 159.191 329.986 156.307C329.994 156.537 330 156.768 330 157V288C330 299.046 321.046 308 310 308H45L44.4834 307.993C33.8481 307.724 25.2765 299.152 25.0068 288.517L25 288V157C25 146.127 33.6765 137.281 44.4834 137.007L45 137H174.075Z" fill="white"/>
<path d="M353 94.5C353 146.691 310.691 189 258.5 189C206.309 189 164 146.691 164 94.5C164 42.3091 206.309 0 258.5 0C310.691 0 353 42.3091 353 94.5ZM175.809 94.5C175.809 140.169 212.831 177.191 258.5 177.191C304.169 177.191 341.191 140.169 341.191 94.5C341.191 48.8309 304.169 11.8088 258.5 11.8088C212.831 11.8088 175.809 48.8309 175.809 94.5Z" fill="white"/>
<path d="M286 96.5C286 111.136 274.136 123 259.5 123C244.864 123 233 111.136 233 96.5C233 81.8645 244.864 70 259.5 70C274.136 70 286 81.8645 286 96.5ZM243.027 96.5C243.027 105.598 250.402 112.973 259.5 112.973C268.598 112.973 275.973 105.598 275.973 96.5C275.973 87.4019 268.598 80.0265 259.5 80.0265C250.402 80.0265 243.027 87.4019 243.027 96.5Z" fill="white"/>
<path d="M254.864 30.3696L256.031 53.9932C256.293 59.3179 260.724 63.5944 265.889 64.9119C268.473 65.5709 271.097 66.416 273.495 67.3491C278.281 69.211 284.211 68.6828 287.772 64.9824L302.715 49.4534C305.341 46.724 306.296 42.618 303.856 39.7208C295.307 29.5689 274.497 22.555 261.782 22.1629C257.397 22.0277 254.648 25.9883 254.864 30.3696Z" fill="white" stroke="white"/>
<path d="M318.544 70.2788L296.898 79.8106C292.019 81.959 289.608 87.625 290.223 92.9204C290.531 95.5691 290.679 98.3213 290.665 100.895C290.636 106.03 293.249 111.38 297.977 113.383L317.821 121.79C321.308 123.267 325.485 122.692 327.319 119.378C333.745 107.765 332.859 85.8233 328.681 73.8069C327.241 69.6635 322.559 68.5111 318.544 70.2788Z" fill="white" stroke="white"/>
<path d="M229.331 152.067L238.824 130.403C240.964 125.521 238.906 119.717 234.87 116.234C232.852 114.491 230.881 112.565 229.15 110.66C225.697 106.858 220.155 104.686 215.317 106.41L195.016 113.643C191.448 114.915 188.762 118.164 189.653 121.845C192.777 134.744 208.273 150.304 219.479 156.327C223.343 158.403 227.57 156.085 229.331 152.067Z" fill="white" stroke="white"/>
<path d="M303.4 145.141L287.59 127.548C284.027 123.583 277.891 123.06 273.052 125.297C270.632 126.416 268.063 127.415 265.614 128.205C260.726 129.78 256.458 133.931 256.03 139.048L254.234 160.524C253.919 164.299 255.768 168.087 259.489 168.795C272.527 171.278 293.097 163.591 303.21 155.872C306.697 153.211 306.332 148.404 303.4 145.141Z" fill="white" stroke="white"/>
<path d="M197.127 83.7203L220.496 87.3706C225.763 88.1934 230.849 84.7229 233.188 79.9318C234.357 77.5355 235.717 75.138 237.117 72.9786C239.911 68.6697 240.597 62.7565 237.696 58.5189L225.521 40.7362C223.382 37.6108 219.555 35.8427 216.223 37.644C204.548 43.956 193.458 62.9097 190.494 75.2817C189.472 79.5476 192.793 83.0433 197.127 83.7203Z" fill="white" stroke="white"/>
<path d="M155 87C155 119.033 129.033 145 97 145C64.9675 145 39 119.033 39 87C39 54.9675 64.9675 29 97 29C129.033 29 155 54.9675 155 87ZM46.2477 87C46.2477 115.03 68.9703 137.752 97 137.752C125.03 137.752 147.752 115.03 147.752 87C147.752 58.9703 125.03 36.2477 97 36.2477C68.9703 36.2477 46.2477 58.9703 46.2477 87Z" fill="white"/>
<path d="M113.879 88.2275C113.879 97.2102 106.597 104.492 97.6142 104.492C88.6315 104.492 81.3496 97.2102 81.3496 88.2275C81.3496 79.2448 88.6315 71.963 97.6142 71.963C106.597 71.963 113.879 79.2448 113.879 88.2275ZM87.5035 88.2275C87.5035 93.8115 92.0302 98.3382 97.6142 98.3382C103.198 98.3382 107.725 93.8115 107.725 88.2275C107.725 82.6435 103.198 78.1168 97.6142 78.1168C92.0302 78.1168 87.5035 82.6435 87.5035 88.2275Z" fill="white"/>
<path d="M94.9084 50.486L95.3598 59.6271C95.5906 64.3019 99.8758 68.182 104.318 69.6576C108.596 71.0789 113.496 70.4103 116.622 67.1615L122.481 61.0724C125.108 58.3431 125.992 54.1954 123.166 51.673C117.977 47.0406 108.806 43.7423 101.857 42.8401C97.5068 42.2753 94.692 46.1047 94.9084 50.486Z" fill="white" stroke="white"/>
<path d="M131.244 73.2826L122.868 76.9709C118.584 78.8571 116.492 84.2459 116.701 88.9217C116.903 93.4259 119.278 97.7629 123.43 99.5216L131.21 102.818C134.698 104.296 138.888 103.639 140.234 100.099C142.706 93.5968 142.509 83.8524 140.868 77.0399C139.841 72.7753 135.259 71.5148 131.244 73.2826Z" fill="white" stroke="white"/>
<path d="M80.2413 119.722L83.9146 111.339C85.7931 107.052 83.6886 101.668 80.3713 98.3663C77.1758 95.1856 72.4925 93.5986 68.2453 95.1119L60.2852 97.9482C56.7172 99.2195 54.0756 102.537 55.4795 106.055C58.0577 112.516 64.795 119.559 70.6118 123.466C74.2533 125.912 78.4806 123.74 80.2413 119.722Z" fill="white" stroke="white"/>
<path d="M122.653 115.961L116.535 109.154C113.407 105.673 107.634 105.366 103.257 107.023C99.0406 108.62 95.6612 112.23 95.2854 116.723L94.581 125.144C94.2653 128.918 96.196 132.694 99.9797 132.869C106.928 133.189 116.125 129.962 122.086 126.277C125.817 123.971 125.585 119.224 122.653 115.961Z" fill="white" stroke="white"/>
<path d="M62.1474 80.8237L71.19 82.2362C75.8144 82.9585 80.4832 79.5496 82.8292 75.4996C85.089 71.5981 85.4283 66.6649 82.8812 62.9446L78.1075 55.9719C75.9678 52.8464 72.0857 51.1389 69.0425 53.3941C63.4537 57.5357 58.3634 65.8472 56.0702 72.4685C54.6346 76.6136 57.8133 80.1467 62.1474 80.8237Z" fill="white" stroke="white"/>
<path d="M334 186.5V275" stroke="white" stroke-width="8"/>
<path d="M411.04 168.947C420.009 166.302 429 173.024 429 182.374V280.377C429 289.831 419.824 296.567 410.805 293.735L352.805 275.516C347.152 273.741 343.25 268.61 343.012 262.731L343 262.16V199.477C343 193.27 347.087 187.805 353.04 186.049L411.04 168.947ZM415.5 185.913C415.5 182.3 411.782 179.884 408.48 181.351C406.669 182.156 405.505 183.957 405.516 185.939L405.985 275.265C405.995 277.128 407.092 278.815 408.792 279.58C411.94 280.994 415.5 278.691 415.5 275.24V185.913Z" fill="white"/>
<path d="M22 200V232" stroke="white" stroke-width="8"/>
<path d="M29 240V191.162C29 186.681 25.32 183.074 20.84 183.163L11.901 183.342C7.52186 183.43 4.02731 187.022 4.06126 191.402L4.43847 240.062C4.47253 244.456 8.04415 248 12.4382 248H21C25.4183 248 29 244.418 29 240Z" stroke="white" stroke-width="8"/>
<line x1="4" y1="356" x2="429" y2="356" stroke="white" stroke-width="8"/>
<rect x="129" y="304" width="89" height="52" fill="white"/>
<path d="M15.7926 414V370.364H44.6847V377.97H25.0185V388.368H42.767V395.974H25.0185V414H15.7926ZM60.1161 370.364V414H50.8903V370.364H60.1161ZM67.7067 414V370.364H76.9325V406.393H95.6399V414H67.7067ZM101.75 370.364H113.127L125.145 399.682H125.656L137.673 370.364H149.051V414H140.102V385.598H139.74L128.447 413.787H122.353L111.061 385.491H110.699V414H101.75V370.364ZM164.173 414H154.287L169.351 370.364H181.24L196.283 414H186.396L175.466 380.335H175.125L164.173 414ZM163.555 396.848H186.908V404.05H163.555V396.848ZM239.093 382.913C238.923 381.195 238.191 379.859 236.899 378.908C235.606 377.956 233.852 377.48 231.636 377.48C230.13 377.48 228.859 377.693 227.822 378.119C226.785 378.531 225.99 379.107 225.436 379.845C224.896 380.584 224.626 381.422 224.626 382.359C224.598 383.141 224.761 383.822 225.116 384.405C225.485 384.987 225.99 385.491 226.629 385.918C227.268 386.33 228.007 386.692 228.845 387.004C229.683 387.303 230.578 387.558 231.529 387.771L235.45 388.709C237.353 389.135 239.1 389.703 240.691 390.413C242.282 391.124 243.66 391.997 244.825 393.034C245.99 394.071 246.892 395.293 247.531 396.699C248.184 398.105 248.518 399.717 248.532 401.536C248.518 404.206 247.836 406.521 246.487 408.482C245.152 410.428 243.22 411.94 240.691 413.02C238.177 414.085 235.145 414.618 231.593 414.618C228.071 414.618 225.002 414.078 222.389 412.999C219.789 411.919 217.758 410.321 216.295 408.205C214.846 406.074 214.086 403.439 214.015 400.3H222.943C223.042 401.763 223.461 402.984 224.2 403.964C224.953 404.93 225.954 405.662 227.204 406.159C228.468 406.642 229.896 406.884 231.487 406.884C233.049 406.884 234.406 406.656 235.556 406.202C236.721 405.747 237.623 405.115 238.262 404.305C238.902 403.496 239.221 402.565 239.221 401.514C239.221 400.534 238.93 399.71 238.348 399.043C237.779 398.375 236.941 397.807 235.833 397.338C234.74 396.869 233.397 396.443 231.806 396.06L227.055 394.866C223.376 393.972 220.471 392.572 218.341 390.669C216.21 388.766 215.152 386.202 215.166 382.977C215.152 380.335 215.855 378.027 217.275 376.053C218.71 374.078 220.677 372.537 223.177 371.429C225.677 370.321 228.518 369.767 231.7 369.767C234.939 369.767 237.765 370.321 240.18 371.429C242.609 372.537 244.498 374.078 245.848 376.053C247.197 378.027 247.893 380.314 247.936 382.913H239.093ZM293.239 385.641H283.907C283.737 384.433 283.388 383.361 282.863 382.423C282.337 381.472 281.663 380.662 280.839 379.994C280.015 379.327 279.063 378.815 277.984 378.46C276.918 378.105 275.761 377.928 274.511 377.928C272.252 377.928 270.285 378.489 268.609 379.611C266.933 380.719 265.633 382.338 264.71 384.469C263.786 386.585 263.325 389.156 263.325 392.182C263.325 395.293 263.786 397.906 264.71 400.023C265.647 402.139 266.954 403.737 268.63 404.817C270.306 405.896 272.245 406.436 274.447 406.436C275.683 406.436 276.826 406.273 277.877 405.946C278.942 405.619 279.887 405.143 280.711 404.518C281.535 403.879 282.217 403.105 282.756 402.196C283.31 401.287 283.694 400.25 283.907 399.085L293.239 399.128C292.998 401.131 292.394 403.062 291.428 404.923C290.477 406.77 289.191 408.425 287.572 409.888C285.967 411.337 284.049 412.487 281.819 413.339C279.603 414.178 277.096 414.597 274.298 414.597C270.406 414.597 266.925 413.716 263.857 411.955C260.803 410.193 258.388 407.643 256.613 404.305C254.852 400.967 253.971 396.926 253.971 392.182C253.971 387.423 254.866 383.375 256.656 380.037C258.445 376.699 260.874 374.156 263.942 372.409C267.011 370.648 270.462 369.767 274.298 369.767C276.826 369.767 279.17 370.122 281.329 370.832C283.502 371.543 285.427 372.58 287.103 373.943C288.779 375.293 290.143 376.947 291.194 378.908C292.259 380.868 292.941 383.112 293.239 385.641ZM339.955 392.182C339.955 396.94 339.053 400.989 337.249 404.327C335.459 407.665 333.016 410.214 329.919 411.976C326.837 413.723 323.371 414.597 319.521 414.597C315.643 414.597 312.163 413.716 309.081 411.955C305.999 410.193 303.563 407.643 301.773 404.305C299.983 400.967 299.088 396.926 299.088 392.182C299.088 387.423 299.983 383.375 301.773 380.037C303.563 376.699 305.999 374.156 309.081 372.409C312.163 370.648 315.643 369.767 319.521 369.767C323.371 369.767 326.837 370.648 329.919 372.409C333.016 374.156 335.459 376.699 337.249 380.037C339.053 383.375 339.955 387.423 339.955 392.182ZM330.601 392.182C330.601 389.099 330.139 386.5 329.216 384.384C328.307 382.267 327.021 380.662 325.359 379.568C323.697 378.474 321.751 377.928 319.521 377.928C317.291 377.928 315.345 378.474 313.683 379.568C312.021 380.662 310.729 382.267 309.805 384.384C308.896 386.5 308.442 389.099 308.442 392.182C308.442 395.264 308.896 397.864 309.805 399.98C310.729 402.097 312.021 403.702 313.683 404.795C315.345 405.889 317.291 406.436 319.521 406.436C321.751 406.436 323.697 405.889 325.359 404.795C327.021 403.702 328.307 402.097 329.216 399.98C330.139 397.864 330.601 395.264 330.601 392.182ZM346.789 414V370.364H364.005C367.3 370.364 370.113 370.953 372.442 372.132C374.786 373.297 376.569 374.952 377.79 377.097C379.026 379.227 379.644 381.734 379.644 384.618C379.644 387.516 379.019 390.009 377.769 392.097C376.519 394.17 374.708 395.761 372.336 396.869C369.978 397.977 367.123 398.531 363.77 398.531H352.243V391.116H362.279C364.04 391.116 365.503 390.875 366.668 390.392C367.833 389.909 368.699 389.185 369.267 388.219C369.85 387.253 370.141 386.053 370.141 384.618C370.141 383.169 369.85 381.947 369.267 380.953C368.699 379.959 367.826 379.206 366.647 378.695C365.482 378.169 364.012 377.906 362.236 377.906H356.015V414H346.789ZM370.354 394.142L381.199 414H371.015L360.404 394.142H370.354ZM386.164 414V370.364H415.567V377.97H395.39V388.368H414.054V395.974H395.39V406.393H415.652V414H386.164Z" fill="white"/>
</svg>
