<svg width="192" height="204" viewBox="0 0 192 204" fill="none" xmlns="http://www.w3.org/2000/svg">
<path d="M0.7 10.8V-2.14577e-06H91.3H182.2V1.19998C182.6 2.59999 184.1 15.5 186.7 39.9C189.7 64.9 191.3 77.8 191.5 78.6V79.8H180.7H169.9C169.9 79 169.6 76.9 169 73.5C168 65.5 166.9 59.4 165.7 55.2C161.7 39.6 152.9 29.5 139.3 24.9C137.3 24.1 135.1 23.5 132.7 23.1C128.7 22.3 118.9 21.8 103.3 21.6H83.2V56.4V91.2H88C99.6 91.2 107.6 89 112 84.6C115.8 80.8 118 73.3 118.6 62.1V56.1H129.4H140.2V102V147.9H129.4H118.6V141.9C118 130.7 115.8 123.2 112 119.4C107.6 115 99.6 112.8 88 112.8H83.2V147.6V182.4H103.6H123.7V193.2V204H119.5L86.8 203.4C67.8 203.2 50 203.2 33.4 203.4C14 203.8 4.4 204 4.6 204H0.7V193.2V182.4H16.9H33.1V102V21.6H16.9H0.7V10.8Z" fill="#FFB703"/>
</svg>
